<?xml version="1.0" standalone="no"?>
<!DOCTYPE svg PUBLIC "-//W3C//DTD SVG 20010904//EN"
 "http://www.w3.org/TR/2001/REC-SVG-20010904/DTD/svg10.dtd">
<svg version="1.0" xmlns="http://www.w3.org/2000/svg"
 width="135.000000pt" height="180.000000pt" viewBox="0 0 135.000000 180.000000"
 preserveAspectRatio="xMidYMid meet">

<g transform="translate(0.000000,180.000000) scale(0.100000,-0.100000)"
fill="#000000" stroke="none">
<path d="M771 1424 c-180 -48 -339 -208 -386 -389 -12 -47 -15 -124 -15 -373
0 -305 1 -316 22 -350 33 -54 84 -72 208 -72 169 0 264 34 357 127 25 24 59
74 76 111 l32 67 0 408 0 408 -42 40 c-42 39 -43 39 -120 38 -43 0 -102 -7
-132 -15z m197 -569 c-3 -297 -5 -307 -68 -379 -115 -131 -318 -102 -403 58
-29 55 -31 184 -3 236 26 49 74 98 121 123 60 32 156 30 217 -4 l46 -26 7 156
c7 165 16 194 58 210 21 8 22 5 25 -48 2 -31 2 -177 0 -326z"/>
<path d="M655 800 c-50 -25 -73 -57 -83 -112 -15 -80 15 -145 82 -178 53 -25
86 -25 135 0 121 61 112 243 -14 295 -46 20 -73 19 -120 -5z"/>
</g>
</svg>
